<svg xmlns="http://www.w3.org/2000/svg" viewBox="0 0 860 292" width="860" height="292" role="img" aria-labelledby="t">
<title id="t">Share of the return turn read from cache after time away, with and without cachemax</title>
<style>
text{font-family:-apple-system, BlinkMacSystemFont, 'Segoe UI', Helvetica, Arial, sans-serif;fill:#1f2328}
.m{fill:#59636e}.b{font-weight:600}.grid{stroke:#d1d9e0;stroke-width:1}.link{stroke:#d1d9e0;stroke-width:2}
.on{fill:#2a78d6;stroke:#ffffff;stroke-width:2}.off{fill:#ffffff;stroke:#898781;stroke-width:2.5}
@media (prefers-color-scheme: dark){
text{fill:#f0f6fc}.m{fill:#9198a1}.grid{stroke:#3d444d}.link{stroke:#3d444d}
.on{fill:#3987e5;stroke:#0d1117}.off{fill:#0d1117}}
</style>
<circle cx="6" cy="18" r="6" class="on"/><text x="18" y="22" font-size="12">with cachemax</text><circle cx="136" cy="18" r="5" class="off"/><text x="148" y="22" font-size="12">without</text><text x="860" y="22" class="m" font-size="12" text-anchor="end">without → with</text>
<line x1="200" x2="200" y1="44" y2="260" class="grid"/>
<text x="200" y="280" class="m" font-size="11" text-anchor="middle">0%</text>
<line x1="320" x2="320" y1="44" y2="260" class="grid"/>
<text x="320" y="280" class="m" font-size="11" text-anchor="middle">25%</text>
<line x1="440" x2="440" y1="44" y2="260" class="grid"/>
<text x="440" y="280" class="m" font-size="11" text-anchor="middle">50%</text>
<line x1="560" x2="560" y1="44" y2="260" class="grid"/>
<text x="560" y="280" class="m" font-size="11" text-anchor="middle">75%</text>
<line x1="680" x2="680" y1="44" y2="260" class="grid"/>
<text x="680" y="280" class="m" font-size="11" text-anchor="middle">100%</text>
<text x="0" y="68" class="b" font-size="13">Claude Code</text>
<line x1="303.9771998574991" x2="672.6106317840245" y1="64" y2="64" class="link"/>
<circle cx="303.9771998574991" cy="64" r="5" class="off"/>
<circle cx="672.6106317840245" cy="64" r="6" class="on"/>
<text x="860" y="68" font-size="13" text-anchor="end"><tspan class="m">21.7% → </tspan><tspan class="b">98.5%</tspan></text>
<text x="0" y="98" class="m" font-size="12">12 min away</text>
<line x1="663.3510251176001" x2="679.5919712714466" y1="94" y2="94" class="link"/>
<circle cx="663.3510251176001" cy="94" r="5" class="off"/>
<circle cx="679.5919712714466" cy="94" r="6" class="on"/>
<text x="860" y="98" font-size="13" text-anchor="end"><tspan class="m">96.5% → </tspan><tspan class="b">99.9%</tspan></text>
<text x="0" y="142" class="b" font-size="13">Codex</text>
<line x1="677.4049196058697" x2="678.4173974044195" y1="138" y2="138" class="link"/>
<circle cx="677.4049196058697" cy="138" r="5" class="off"/>
<circle cx="678.4173974044195" cy="138" r="6" class="on"/>
<text x="860" y="142" font-size="13" text-anchor="end"><tspan class="m">99.5% → </tspan><tspan class="b">99.7%</tspan></text>
<text x="0" y="172" class="m" font-size="12">35 min away</text>
<line x1="677.2820440825495" x2="677.0253268164917" y1="168" y2="168" class="link"/>
<circle cx="677.2820440825495" cy="168" r="5" class="off"/>
<circle cx="677.0253268164917" cy="168" r="6" class="on"/>
<text x="860" y="172" font-size="13" text-anchor="end"><tspan class="m">99.4% → </tspan><tspan class="b">99.4%</tspan></text>
<text x="0" y="216" class="b" font-size="13">Grok Build</text>
<line x1="677.6441084799197" x2="679.1152700978307" y1="212" y2="212" class="link"/>
<circle cx="677.6441084799197" cy="212" r="5" class="off"/>
<circle cx="679.1152700978307" cy="212" r="6" class="on"/>
<text x="860" y="216" font-size="13" text-anchor="end"><tspan class="m">99.5% → </tspan><tspan class="b">99.8%</tspan></text>
<text x="0" y="246" class="m" font-size="12">12 min away</text>
<line x1="200" x2="678.4397213788177" y1="242" y2="242" class="link"/>
<circle cx="200" cy="242" r="5" class="off"/>
<circle cx="678.4397213788177" cy="242" r="6" class="on"/>
<text x="860" y="246" font-size="13" text-anchor="end"><tspan class="m">0%* → </tspan><tspan class="b">99.7%</tspan></text>
</svg>
